<svg width="22" height="15" viewBox="0 0 22 15" fill="none" xmlns="http://www.w3.org/2000/svg">
<path d="M20.3125 9.375H1.5625C0.699707 9.375 0 10.0747 0 10.9375V12.5C0 13.3628 0.699707 14.0625 1.5625 14.0625H20.3125C21.1753 14.0625 21.875 13.3628 21.875 12.5V10.9375C21.875 10.0747 21.1753 9.375 20.3125 9.375ZM20.3125 0H1.5625C0.699707 0 0 0.699707 0 1.5625V3.125C0 3.98779 0.699707 4.6875 1.5625 4.6875H20.3125C21.1753 4.6875 21.875 3.98779 21.875 3.125V1.5625C21.875 0.699707 21.1753 0 20.3125 0Z" fill="#136068"/>
</svg>
